# xmcd
#
# Track frame offsets:
#	150
#	11553
#	29825
#	52749
#	66202
#	79547
#	101564
#	116492
#	143406
#	156658
#	182915
#	194414
#	208529
#	219743
#	235621
#	247642
#	263885
#	281605
#
# Disc length: 3907 seconds
#
# Revision: 0
# Processed by: cddbd v1.4PL0 Copyright (c) Steve Scherf et al.
# Submitted via: EasyCDDAExtractor 4.6.9.1
#
DISCID=fa0f4112
DTITLE=Louis Armstrong - The Best Of
DYEAR=2000
DGENRE=Blues
TTITLE0=Hello Dolly
TTITLE1=Ain't Misbehavin'
TTITLE2=Duke's Place
TTITLE3=The Blues Are Brewin'
TTITLE4=Whata Ya Gonna Do?
TTITLE5=Solitude
TTITLE6=Back O'town Blues
TTITLE7=Struttin' With Some Barbecue
TTITLE8=I Can't Give You Anything But Love
TTITLE9=Basin Street Blues
TTITLE10=Cut Off My Legs And Call Me
TTITLE11=I'm Just A Lucky So And So
TTITLE12=Our Monday Date
TTITLE13=Don't Get Around Much Anymore 
TTITLE14=Muskrat Ramble
TTITLE15=I'm Beginning To See The Light
TTITLE16=Cabaret
TTITLE17=Bye And Bye
EXTD=
EXTT0=
EXTT1=
EXTT2=
EXTT3=
EXTT4=
EXTT5=
EXTT6=
EXTT7=
EXTT8=
EXTT9=
EXTT10=
EXTT11=
EXTT12=
EXTT13=
EXTT14=
EXTT15=
EXTT16=
EXTT17=
PLAYORDER=
